<svg width="19" height="19" viewBox="0 0 19 19" fill="none" xmlns="http://www.w3.org/2000/svg">
<path d="M14.7812 1.76172H14.4062V1.38672C14.4062 0.764969 13.9023 0.261719 13.2812 0.261719C12.6602 0.261719 12.1562 0.764969 12.1562 1.38672V1.76172H7.65625V1.38672C7.65625 0.764969 7.15225 0.261719 6.53125 0.261719C5.91025 0.261719 5.40625 0.764969 5.40625 1.38672V1.76172H5.03125C2.75725 1.76172 0.90625 3.61197 0.90625 5.88672V14.1367C0.90625 16.4115 2.75725 18.2617 5.03125 18.2617H14.7812C17.0553 18.2617 18.9062 16.4115 18.9062 14.1367V5.88672C18.9062 3.61197 17.0553 1.76172 14.7812 1.76172ZM14.7812 16.0117H5.03125C3.997 16.0117 3.15625 15.1702 3.15625 14.1367V7.01172H16.6562V14.1367C16.6562 15.1702 15.8155 16.0117 14.7812 16.0117ZM8.40625 9.63672V11.1367C8.40625 11.7577 7.90225 12.2617 7.28125 12.2617H5.78125C5.16025 12.2617 4.65625 11.7577 4.65625 11.1367V9.63672C4.65625 9.01572 5.16025 8.51172 5.78125 8.51172H7.28125C7.90225 8.51172 8.40625 9.01572 8.40625 9.63672Z" fill="#6B7A99"/>
</svg>
