<svg xmlns="http://www.w3.org/2000/svg" xmlns:xlink="http://www.w3.org/1999/xlink" width="1143" height="1143" viewBox="0 0 1143 1143">
  <defs>
    <linearGradient id="linear-gradient" x1="1" y1="0.5" x2="0" y2="0.5" gradientUnits="objectBoundingBox">
      <stop offset="0" stop-color="#ed4825"/>
      <stop offset="1" stop-color="#fdd702"/>
    </linearGradient>
    <linearGradient id="linear-gradient-2" x1="0.844" y1="1" x2="0.156" gradientUnits="objectBoundingBox">
      <stop offset="0" stop-color="#18a845"/>
      <stop offset="1" stop-color="#d7dd04"/>
    </linearGradient>
    <linearGradient id="linear-gradient-3" x1="0.299" y1="1" x2="0.701" gradientUnits="objectBoundingBox">
      <stop offset="0" stop-color="#016eb6"/>
      <stop offset="1" stop-color="#00b3ef"/>
    </linearGradient>
    <linearGradient id="linear-gradient-4" x1="0.5" x2="0.5" y2="1" gradientUnits="objectBoundingBox">
      <stop offset="0" stop-color="#131466"/>
      <stop offset="1" stop-color="#1477bd"/>
    </linearGradient>
  </defs>
  <g id="Group_1" data-name="Group 1" transform="translate(-2177.947 -742.487)">
    <rect id="Rectangle_1" data-name="Rectangle 1" width="1143" height="1143" transform="translate(2177.947 742.487)" fill="none"/>
    <g id="Group_1-2" data-name="Group 1" transform="translate(86.014 41.58)">
      <path id="Shape_1" data-name="Shape 1" d="M915.357,552c-2.464,0-6.579-5.793-12.23-17.219-5.813-11.753-16.115-28.442-27.555-44.644-7.189-10.179-14.905-20.327-22.936-30.162-9.148-11.2-18.742-22.041-28.515-32.213-23.168-24.114-47.457-44.656-72.192-61.055a322.517,322.517,0,0,0-42.888-24.079,263.675,263.675,0,0,0-46.889-16.6,477.233,477.233,0,0,0-114.571-14.1,452.989,452.989,0,0,0-51.4,2.906,407.73,407.73,0,0,0-42.644,7.146,313.256,313.256,0,0,0-32.45,9.026,154.7,154.7,0,0,0-20.822,8.546c-2.047,1.1-4.037,2.193-5.961,3.249l-.076.042c-7.492,4.113-14.568,8-22.431,10.981a97.151,97.151,0,0,1-27.9,5.989c-10.226.775-15.45,1.743-18.633,3.454-3.263,1.755-4.514,4.381-6.406,8.356a83.586,83.586,0,0,1-5.141,9.519c-2.694,4.253-8.152,9.831-15.369,15.706a225.7,225.7,0,0,1-30.137,20.262C247.88,428.7,213.924,444.7,167.63,455.138c-23.4,5.276-41.441,8.863-56.774,11.29-16.788,2.657-30.677,3.948-42.461,3.949-11.346,0-21.058-1.183-29.689-3.617a72.586,72.586,0,0,1-23.353-11.294,37.657,37.657,0,0,1-11.4-12.78,34.6,34.6,0,0,1-3.91-14.62c-.4-8.288,1.8-17.484,6.376-26.593a69.76,69.76,0,0,1,15.155-20.225,89.054,89.054,0,0,0,13.743-16.413,183.05,183.05,0,0,0,14.367-25.9A258.318,258.318,0,0,0,70.71,264.243c1.9-14.9,4.654-27.36,8.434-38.083,3.9-11.077,8.823-20.1,15.035-27.58A67.36,67.36,0,0,1,104.555,188.5a69.962,69.962,0,0,1,12.487-7.735c9.056-4.392,19.5-7.269,31.92-8.8a160.606,160.606,0,0,0,28.415-10.493A154.813,154.813,0,0,0,201.4,147.04a164.249,164.249,0,0,0,20.065-17.392A187,187,0,0,0,238,110.275,241.985,241.985,0,0,0,262.216,69.5c6.4-13.416,11.311-26.2,15.268-36.944,4.063-11.027,8.824-19.393,14.151-24.866C296.6,2.588,302.052,0,307.829,0c4.839,0,9.867,1.816,14.944,5.4a64.487,64.487,0,0,1,14.446,14.942c4.988,6.867,11.244,19.642,17.616,35.972a513.094,513.094,0,0,1,18.594,58.551,468.916,468.916,0,0,1,12.415,67.969c2.5,24.56,2.188,46.168-.918,64.226-2.205,12.822-2.542,20.927-.947,22.821a1.082,1.082,0,0,0,.845.429c.685,0,1.541-.644,2.545-1.913,2.873-3.634,6.659-11.99,10.389-22.924a313.852,313.852,0,0,0,10.861-41.831,322.075,322.075,0,0,0,5.794-51.849c.512-19.49-1.107-37.315-4.811-52.979a36.495,36.495,0,0,1-.438-5.959c.029-2.992.5-7.077,2.576-9.551a6.363,6.363,0,0,1,5.117-2.264,12.2,12.2,0,0,1,3.16.463c.12.021,12.259,2.173,32.412,6.984,18.508,4.418,47.647,12.028,81.36,23.19a887.567,887.567,0,0,1,106.5,42.75c19.459,9.394,38.042,19.407,55.233,29.759a537,537,0,0,1,52.588,35.907,501.827,501.827,0,0,1,45.321,39.748,435.174,435.174,0,0,1,36.168,40.65,400.1,400.1,0,0,1,28.14,41.027,392.491,392.491,0,0,1,21.236,40.879c24.373,54.531,33.1,107.2,38.413,151.533.019.144,1.833,14.449-.852,17.5A1.53,1.53,0,0,1,915.357,552ZM38.262,391.766A6.793,6.793,0,0,0,34.3,393.06a6.688,6.688,0,0,0-2.475,3.469,6.733,6.733,0,1,0,6.441-4.763Zm129.5-164.834a32.96,32.96,0,1,0,9.674,1.464A32.653,32.653,0,0,0,167.76,226.932Z" transform="translate(2204.933 742.907)" fill="url(#linear-gradient)"/>
      <path id="Shape_2" data-name="Shape 2" d="M2467.8,1003.263s114.254-63.8,272.855-18.453S2969.385,1166.5,2992.5,1273.483c0,0-15.6,116.079-76.133,213.065s-196.941,164.47-196.941,164.47-41.367,20.547.989-14.587,108.306-149.721,101.2-263.159-76.235-209.317-125.709-253.462-150.374-87.351-207.057-99.553C2445.953,1010.188,2462.812,1005.231,2467.8,1003.263Z" transform="translate(126.556 112.423)" fill="url(#linear-gradient-2)"/>
      <path id="Shape_3" data-name="Shape 3" d="M2615.579,1030.83s160,47.07,226.966,181.083,29.371,251.286,10.528,293.342-51.3,102.008-135.12,144.668c0,0-127.745,39.44-267.567-30.13s-169.908-160.269-169.908-160.269-14.271-30.165,8.8-4.654,81.031,96.547,208.594,88.154c139.747-9.194,220.808-108.17,241.006-188.1s14.751-196.171-114.352-302.935C2580.174,1017.224,2612.888,1030,2615.579,1030.83Z" transform="translate(35.3 141.85)" fill="url(#linear-gradient-3)"/>
      <path id="Shape_6" data-name="Shape 6" d="M2692.458,1391.7s-76.89,103.455-206.142,106.026-189.881-89.8-205.027-119.523c-18.294-35.9-50.037-156.489,29.52-251.9,76.162-91.339,214.354-84.751,282.321-19.945,72.61,69.233,53.277,204.958-40.89,234.1-80.164,22.408-122.52-37.331-118.593-64.765,0,0,.558-11.874,6.3-2.437-2.139,19.882,31.631,60.382,81.341,48.275,61.282-14.926,79.3-92.94,52.84-138.509-25.09-43.205-128.45-91.586-192.48,2.847-57.479,84.771-24.624,216.23,76.635,249.678s192.159-16.95,224.952-47.555S2693.306,1388.946,2692.458,1391.7Z" transform="translate(26.985 156.635)" fill="url(#linear-gradient-4)"/>
    </g>
  </g>
</svg>
