<svg xmlns="http://www.w3.org/2000/svg" xmlns:xlink="http://www.w3.org/1999/xlink" width="1700" height="608" viewBox="0 0 1700 608">
  <defs>
    <linearGradient id="linear-gradient" x1="1" y1="0.5" x2="0" y2="0.5" gradientUnits="objectBoundingBox">
      <stop offset="0" stop-color="#ed4825"/>
      <stop offset="1" stop-color="#fdd702"/>
    </linearGradient>
    <linearGradient id="linear-gradient-2" x1="0.843" y1="1" x2="0.157" gradientUnits="objectBoundingBox">
      <stop offset="0" stop-color="#18a845"/>
      <stop offset="1" stop-color="#d7dd04"/>
    </linearGradient>
    <linearGradient id="linear-gradient-3" x1="0.299" y1="1" x2="0.701" gradientUnits="objectBoundingBox">
      <stop offset="0" stop-color="#016eb6"/>
      <stop offset="1" stop-color="#00b3ef"/>
    </linearGradient>
    <linearGradient id="linear-gradient-4" x1="0.5" x2="0.5" y2="1" gradientUnits="objectBoundingBox">
      <stop offset="0" stop-color="#131466"/>
      <stop offset="1" stop-color="#1477bd"/>
    </linearGradient>
  </defs>
  <g id="Group_238" data-name="Group 238" transform="translate(-950 -924.03)">
    <path id="Path_2" data-name="Path 2" d="M-1586.336-216.97h0Zm0,4.958q-16.733,0-28.2-11.466t-11.465-28.2V-430.168h99.16a37.461,37.461,0,0,1,27.889,11.775,37.463,37.463,0,0,1,11.775,27.889h-39.664a19.06,19.06,0,0,0-5.888-13.945,19.059,19.059,0,0,0-13.944-5.888h-39.664v158.659a19.974,19.974,0,0,0,5.578,14.254,19.973,19.973,0,0,0,14.254,5.578h39.664v-19.832h39.664v39.665Zm118.992,0V-450h39.664v39.665a19.974,19.974,0,0,0,5.578,14.255,19.973,19.973,0,0,0,14.254,5.578h39.664a37.461,37.461,0,0,1,27.889,11.775,37.462,37.462,0,0,1,11.775,27.889v138.826h-39.664V-350.838a19.059,19.059,0,0,0-5.888-13.945,19.059,19.059,0,0,0-13.944-5.888h-19.832a39.258,39.258,0,0,1-19.832-4.958v163.617Zm237.984-19.832a19.593,19.593,0,0,0,13.944-5.578,19.415,19.415,0,0,0,5.888-14.254v-64.455a40.365,40.365,0,0,1-19.832,4.958h-19.832a19.415,19.415,0,0,0-14.254,5.888,19.594,19.594,0,0,0-5.578,13.945v59.5Zm-79.328,19.832v-79.329a37.963,37.963,0,0,1,11.465-27.889,37.817,37.817,0,0,1,28.2-11.775h39.664a19.593,19.593,0,0,0,13.944-5.578,19.415,19.415,0,0,0,5.888-14.255,19.059,19.059,0,0,0-5.888-13.945,19.059,19.059,0,0,0-13.944-5.888h-19.832a19.415,19.415,0,0,0-14.254,5.888,19.594,19.594,0,0,0-5.578,13.945h-39.664a37.963,37.963,0,0,1,11.465-27.889,37.817,37.817,0,0,1,28.2-11.775h59.5a37.461,37.461,0,0,1,27.889,11.775,37.462,37.462,0,0,1,11.775,27.889v99.162a37.818,37.818,0,0,1-11.775,28.2,37.961,37.961,0,0,1-27.889,11.466Zm158.656,0V-390.5h99.16a37.462,37.462,0,0,1,27.889,11.775,12.3,12.3,0,0,1,1.549,1.859l1.859-1.859a37.817,37.817,0,0,1,28.2-11.775h39.664a37.461,37.461,0,0,1,27.889,11.775,37.462,37.462,0,0,1,11.775,27.889v138.826h-39.664V-350.838a19.059,19.059,0,0,0-5.888-13.945,19.059,19.059,0,0,0-13.944-5.888h-19.832a19.415,19.415,0,0,0-14.254,5.888,19.594,19.594,0,0,0-5.578,13.945v138.826h-39.664V-350.838a19.059,19.059,0,0,0-5.888-13.945,19.059,19.059,0,0,0-13.944-5.888h-19.832a19.415,19.415,0,0,0-14.254,5.888,19.594,19.594,0,0,0-5.578,13.945v138.826Zm337.144-79.329a19.593,19.593,0,0,0,13.944-5.578,19.415,19.415,0,0,0,5.888-14.255v-39.665a19.059,19.059,0,0,0-5.888-13.945,19.059,19.059,0,0,0-13.944-5.888h-39.664v79.329Zm-39.664,79.329q-16.733,0-28.2-11.466t-11.465-28.2V-390.5h99.16a37.461,37.461,0,0,1,27.889,11.775,37.462,37.462,0,0,1,11.775,27.889v39.665a37.818,37.818,0,0,1-11.775,28.2,37.961,37.961,0,0,1-27.889,11.466h-59.5v19.832a19.973,19.973,0,0,0,5.578,14.254,19.973,19.973,0,0,0,14.254,5.578h59.5v19.832Zm118.992,0V-450H-693.9v237.988Zm138.824-79.329a19.593,19.593,0,0,0,13.944-5.578,19.416,19.416,0,0,0,5.888-14.255v-39.665a19.06,19.06,0,0,0-5.888-13.945,19.059,19.059,0,0,0-13.944-5.888H-634.4v79.329ZM-634.4-212.012q-16.733,0-28.2-11.466t-11.465-28.2V-390.5h99.16a37.461,37.461,0,0,1,27.889,11.775,37.462,37.462,0,0,1,11.775,27.889v39.665a37.818,37.818,0,0,1-11.775,28.2A37.961,37.961,0,0,1-574.9-271.509h-59.5v19.832a19.973,19.973,0,0,0,5.578,14.254,19.973,19.973,0,0,0,14.254,5.578h59.5v19.832Zm569.575,0V-390.5h99.16a37.461,37.461,0,0,1,27.889,11.775A37.462,37.462,0,0,1,74-350.838v138.826H34.336V-350.838a19.059,19.059,0,0,0-5.888-13.945A19.059,19.059,0,0,0,14.5-370.671H-5.328a19.415,19.415,0,0,0-14.254,5.888,19.594,19.594,0,0,0-5.578,13.945v138.826Z" transform="translate(2576 1603.591)"/>
    <path id="Path_1" data-name="Path 1" d="M-1192.6-66.713h10.577v-74.041H-1192.6Zm96.465-74.041v55.213l-44.424-55.213h-8.673v74.041h10.577v-55.213l44.424,55.213h8.673v-74.041Zm95.618,9.2v-9.2h-52.252v74.041h10.577V-96.647h37.126v-9.1h-37.126v-25.808Zm58.069,65.685c22.53,0,39.242-16.077,39.242-37.867S-919.918-141.6-942.448-141.6c-22.741,0-39.453,16.183-39.453,37.867S-965.189-65.867-942.448-65.867Zm0-9.414c-16.606,0-28.876-12.058-28.876-28.453s12.27-28.453,28.876-28.453c16.395,0,28.664,12.058,28.664,28.453S-926.053-75.281-942.448-75.281Zm79.647,8.568h10.471v-64.839h25.385v-9.2h-61.242v9.2H-862.8Zm68.541-9.2v-23.9h37.126v-8.991h-37.126v-22.741h41.674v-9.2h-52.252v74.041h53.732v-9.2ZM-690.6-65.867c11.529,0,21.472-4.019,28.241-11.635l-6.875-6.664a27.532,27.532,0,0,1-20.837,8.885c-16.712,0-29.087-12.058-29.087-28.453s12.375-28.453,29.087-28.453a27.435,27.435,0,0,1,20.837,8.779l6.875-6.664c-6.769-7.616-16.712-11.529-28.135-11.529-22.53,0-39.242,15.972-39.242,37.867S-713.028-65.867-690.6-65.867Zm107.042-74.887v31.838h-42.521v-31.838H-636.66v74.041h10.577v-33h42.521v33h10.577v-74.041Z" transform="translate(3221.641 1597.897)" fill="#535353"/>
    <g id="Group_1_copy" data-name="Group 1 copy" transform="translate(2036.968 924.03)">
      <path id="Shape_1" data-name="Shape 1" d="M440.507,264.671c-1.185,0-3.171-2.78-5.9-8.264-1.271-2.552-3.041-5.692-5.118-9.081-2.435-3.972-5.191-8.127-8.19-12.35-3.471-4.886-7.2-9.756-11.07-14.474-4.415-5.377-9.043-10.576-13.756-15.454a208.128,208.128,0,0,0-34.8-29.269,155.223,155.223,0,0,0-20.661-11.526,126.937,126.937,0,0,0-22.577-7.928,229.818,229.818,0,0,0-54.587-6.642,218.275,218.275,0,0,0-24.921,1.418,196.664,196.664,0,0,0-20.671,3.484,151.251,151.251,0,0,0-15.721,4.4,78.552,78.552,0,0,0-10.073,4.156c-1.005.543-1.969,1.075-2.9,1.589a85.173,85.173,0,0,1-10.779,5.306,46.773,46.773,0,0,1-13.413,2.912c-4.919.384-7.431.856-8.96,1.683-1.567.847-2.166,2.112-3.072,4.025v0a40.308,40.308,0,0,1-2.46,4.58A36.3,36.3,0,0,1,143.5,190.8a108.61,108.61,0,0,1-14.475,9.777,176.8,176.8,0,0,1-48.344,18.4c-11.315,2.578-20.03,4.331-27.429,5.515a131.613,131.613,0,0,1-20.485,1.928,52.02,52.02,0,0,1-14.17-1.725A34.912,34.912,0,0,1,7.42,219.32a18.11,18.11,0,0,1-5.5-6.131,16.626,16.626,0,0,1-1.9-7.024,26.1,26.1,0,0,1,3.036-12.793,33.542,33.542,0,0,1,7.267-9.741,42.813,42.813,0,0,0,6.592-7.907,88,88,0,0,0,6.881-12.47A124.144,124.144,0,0,0,33.826,127.32,88.609,88.609,0,0,1,37.839,109,49.95,49.95,0,0,1,41,101.754a37.436,37.436,0,0,1,4.036-6.031,32.408,32.408,0,0,1,4.98-4.86,33.688,33.688,0,0,1,6-3.734,41.591,41.591,0,0,1,7.09-2.652,58.036,58.036,0,0,1,8.256-1.615,77.308,77.308,0,0,0,13.657-5.078,74.49,74.49,0,0,0,11.541-6.967,79,79,0,0,0,9.633-8.386,89.887,89.887,0,0,0,7.933-9.334,107.022,107.022,0,0,0,6.441-9.811c1.784-3.061,3.519-6.365,5.158-9.819,3.064-6.458,5.411-12.611,7.3-17.78,1.944-5.313,4.228-9.344,6.789-11.982A10.8,10.8,0,0,1,147.612,0,12.585,12.585,0,0,1,154.8,2.585a31.037,31.037,0,0,1,6.956,7.159c2.408,3.3,5.433,9.431,8.518,17.274a246.564,246.564,0,0,1,9.014,28.128c1.4,5.441,2.619,10.878,3.613,16.159,1.071,5.691,1.892,11.244,2.44,16.5,1.23,11.8,1.107,22.194-.366,30.879a59.457,59.457,0,0,0-.906,7.69c-.052,1.742.109,2.846.477,3.282a.521.521,0,0,0,.406.206c.328,0,.738-.308,1.217-.916,1.377-1.745,3.189-5.763,4.971-11.024A150.676,150.676,0,0,0,196.313,97.8a154.743,154.743,0,0,0,2.729-24.941,99.937,99.937,0,0,0-2.377-25.475,17.66,17.66,0,0,1-.218-2.867,7.608,7.608,0,0,1,1.231-4.6,3.064,3.064,0,0,1,2.467-1.092,5.887,5.887,0,0,1,1.51.219c.058.01,5.921,1.036,15.6,3.32,5.669,1.338,11.507,2.837,17.354,4.457,7.307,2.025,14.647,4.244,21.814,6.6A427.159,427.159,0,0,1,307.709,73.85c9.373,4.494,18.325,9.286,26.607,14.242a258.363,258.363,0,0,1,25.341,17.2,241.317,241.317,0,0,1,21.85,19.056,209.179,209.179,0,0,1,17.447,19.5,192.354,192.354,0,0,1,13.586,19.691A188.645,188.645,0,0,1,422.8,183.171c11.79,26.188,16.048,51.5,18.658,72.807,0,.017.228,1.749.292,3.653a19.851,19.851,0,0,1-.073,2.824,3.726,3.726,0,0,1-.609,1.94A.735.735,0,0,1,440.507,264.671Zm-422.132-76a3.269,3.269,0,0,0-1.911.625,3.244,3.244,0,0,0,1.913,5.864,3.272,3.272,0,0,0,1.912-.624,3.245,3.245,0,0,0-1.913-5.865Zm62.134-79.4a15.869,15.869,0,1,0,4.618.693A15.713,15.713,0,0,0,80.509,109.268Z" transform="translate(0)" fill="url(#linear-gradient)"/>
      <path id="Shape_2" data-name="Shape 2" d="M3356.334,1247.975s54.885-30.823,131.23-9.2,110.241,87.132,121.486,138.565c0,0-7.369,55.856-36.372,102.581s-94.542,79.347-94.542,79.347-19.875,9.932.458-7.018,51.923-72.148,48.369-126.708-36.918-100.6-60.769-121.776-72.437-41.842-99.719-47.645C3345.834,1251.332,3353.938,1248.928,3356.334,1247.975Z" transform="translate(-3169.022 -1068.694)" fill="url(#linear-gradient-2)"/>
      <path id="Shape_3" data-name="Shape 3" d="M3265.924,1313.478s77.023,22.454,109.392,86.84,14.424,120.843,5.41,141.095-24.556,49.13-64.827,69.749c0,0-61.4,19.122-128.744-14.178s-81.92-76.895-81.92-76.895-6.9-14.494,4.226-2.249,39.093,46.347,100.445,42.159c67.212-4.587,106.089-52.293,115.711-90.764s6.865-94.382-55.364-145.588C3248.877,1306.975,3264.629,1313.083,3265.924,1313.478Z" transform="translate(-3051.412 -1106.847)" fill="url(#linear-gradient-3)"/>
      <path id="Shape_6" data-name="Shape 6" d="M3288.435,1513.367s-36.865,49.856-99.036,51.245-91.445-42.973-98.765-57.253c-8.842-17.249-24.254-75.217,13.9-121.206,36.529-44.027,103.011-41.02,135.782-9.927,35.01,33.218,25.869,98.529-19.394,112.659-38.535,10.874-58.98-17.813-57.123-31.015,0,0,.189-2.367,1.11-2.68.447-.152,1.828-.365,1.919,1.5.683,11.691,15.287,29.009,39.185,23.126,29.461-7.252,38.038-44.8,25.255-66.69-12.12-20.754-61.9-43.9-92.586,1.6-27.55,40.845-11.591,104.043,37.158,120.013s92.415-8.38,108.154-23.14S3289.815,1511.785,3288.435,1513.367Z" transform="translate(-3040.499 -1126.114)" fill="url(#linear-gradient-4)"/>
    </g>
  </g>
</svg>
